# xmcd
#
# Track frame offsets: 
#        150
#        10348
#        21376
#        31444
#        43405
#        52652
#        63514
#        74028
#        84637
#        95700
#        105697
#        115606
#        126421
#        135102
#        147165
#        156160
#        165824
#        173863
#        184346
#        193420
#
# Disc length: 2731 seconds
#
# Revision: 1
# Processed by: cddbd v1.5.2PL0 Copyright (c) Steve Scherf et al.
# Submitted via: ExactAudioCopyFreeDBPlugin 1.0
#
DISCID=1e0aa914
DTITLE=Various Artist - Super Soul Sisters:  60 Timeless Soul Grooves
DTITLE=[Not Now Music]
DYEAR=2016
DGENRE=Soul
TTITLE0=Barbara English - We Need Them
TTITLE1=Brenda Holloway - Echo
TTITLE2=Gloria Lynne - You Don't Have to Be a Tower of Strength
TTITLE3=Bettye LaVette - My Man, He's a Lovin' Man
TTITLE4=Esther Philips - Don't Feel Rained On
TTITLE5=Patti LaBelle and The Bluebelles - I Sold My Heart to the Junkma
TTITLE5=n
TTITLE6=Mable John - Looking for a Man
TTITLE7=Irma Thomas - Cry On
TTITLE8=Yvonne Fair and The James Brown Band - I Found You
TTITLE9=Gladys Knight and The Pips - Operator
TTITLE10=Baby Washington - The Time
TTITLE11=Claudine Clark - Foxy
TTITLE12=Maxine Brown - If I Knew Then (What I Know Now)
TTITLE13=Miss Lavelle - Tide of Love
TTITLE14=Barbara Lynn - Lonely Heartaches
TTITLE15=Lena Calhoun - First Baby Love
TTITLE16=Christine Kittrell - It's Nobody's Fault
TTITLE17=Erma Franklin - Don't Wait Too Long
TTITLE18=Ramona King - Soul-Mate
TTITLE19=Freda Payne - (Desafinado) Slightly Out of Tune
EXTD=
EXTT0=
EXTT1=
EXTT2=
EXTT3=
EXTT4=
EXTT5=
EXTT6=
EXTT7=
EXTT8=
EXTT9=
EXTT10=
EXTT11=
EXTT12=
EXTT13=
EXTT14=
EXTT15=
EXTT16=
EXTT17=
EXTT18=
EXTT19=
PLAYORDER=
